<svg width="48" height="48" viewBox="0 0 48 48" fill="none" xmlns="http://www.w3.org/2000/svg">
<path d="M11.4981 44.2656C7.84947 38.3114 5.74609 31.3078 5.74609 23.813C5.74609 16.7674 7.65435 9.97929 10.9083 4.26562" stroke="#131318" stroke-width="3" stroke-miterlimit="10" stroke-linecap="round" stroke-linejoin="round"/>
<path d="M3 6.74655L10.9079 4.26562L13.384 12.3036" stroke="#131318" stroke-width="3" stroke-miterlimit="10" stroke-linecap="round" stroke-linejoin="round"/>
<path d="M29.3359 32.9149L34.4858 35.9936" stroke="#131318" stroke-width="3" stroke-miterlimit="10" stroke-linecap="round" stroke-linejoin="round"/>
<path d="M46 20.3791L42.2143 17.0114C40.5745 15.5526 38.0654 15.6877 36.5916 17.3141L28.9813 25.7125L19.5398 20.0682C18.1177 19.2181 16.2757 19.6817 15.4255 21.1038V21.1038C14.5753 22.5259 15.039 24.368 16.4611 25.2181L29.3359 32.9149L27.2834 36.3482C26.7166 37.2962 27.0257 38.5243 27.9738 39.091L34.8404 43.196C37.8445 44.9919 42.6095 42.0152 45.9891 44.0356" stroke="#131318" stroke-width="3" stroke-miterlimit="10" stroke-linecap="round" stroke-linejoin="round"/>
</svg>
