<svg width="48" height="48" viewBox="0 0 48 48" fill="none" xmlns="http://www.w3.org/2000/svg">
<path d="M9.99023 37.851L24.0002 45.9389L38.0102 37.851" stroke="#131318" stroke-width="3" stroke-miterlimit="10" stroke-linecap="round" stroke-linejoin="round"/>
<path d="M19.01 4.94202L5 13.03V29.207" stroke="#131318" stroke-width="3" stroke-miterlimit="10" stroke-linecap="round" stroke-linejoin="round"/>
<path d="M43.0002 29.208V13.03L28.9902 4.94202" stroke="#131318" stroke-width="3" stroke-miterlimit="10" stroke-linecap="round" stroke-linejoin="round"/>
<path d="M29 5V12C29 13.657 26.761 15 24 15C21.239 15 19 13.657 19 12V5" stroke="#131318" stroke-width="3" stroke-miterlimit="10" stroke-linecap="round" stroke-linejoin="round"/>
<path d="M24 8C26.7614 8 29 6.65685 29 5C29 3.34315 26.7614 2 24 2C21.2386 2 19 3.34315 19 5C19 6.65685 21.2386 8 24 8Z" stroke="#131318" stroke-width="3" stroke-miterlimit="10" stroke-linecap="round" stroke-linejoin="round"/>
<path d="M5 13.03L24 24L43 13.03" stroke="#131318" stroke-width="3" stroke-miterlimit="10" stroke-linecap="round" stroke-linejoin="round"/>
<path d="M42.9534 29.17L36.8914 25.67C35.4564 24.841 33.1744 26.109 31.7914 28.5C30.4084 30.891 30.4544 33.5 31.8914 34.33L37.9534 37.83" stroke="#131318" stroke-width="3" stroke-miterlimit="10" stroke-linecap="round" stroke-linejoin="round"/>
<path d="M42.9535 29.17C41.5195 28.341 39.2365 29.609 37.8535 32C36.4705 34.391 36.5175 37 37.9535 37.83C39.3895 38.66 41.6715 37.392 43.0535 35C44.4355 32.608 44.3885 30 42.9535 29.17Z" stroke="#131318" stroke-width="3" stroke-miterlimit="10" stroke-linecap="round" stroke-linejoin="round"/>
<path d="M24 24V45.939" stroke="#131318" stroke-width="3" stroke-miterlimit="10" stroke-linecap="round" stroke-linejoin="round"/>
<path d="M10.0449 37.83L16.1079 34.33C17.5419 33.502 17.5859 30.891 16.2079 28.5C14.8299 26.109 12.5439 24.841 11.1079 25.67L5.04492 29.17" stroke="#131318" stroke-width="3" stroke-miterlimit="10" stroke-linecap="round" stroke-linejoin="round"/>
<path d="M10.1428 32C8.76281 29.608 6.47981 28.341 5.04281 29.17C3.60581 29.999 3.56481 32.608 4.94281 35C6.32081 37.392 8.60681 38.659 10.0428 37.83C11.4788 37.001 11.5238 34.391 10.1428 32Z" stroke="#131318" stroke-width="3" stroke-miterlimit="10" stroke-linecap="round" stroke-linejoin="round"/>
</svg>
