<?xml version="1.0" encoding="UTF-8"?>
<svg xmlns="http://www.w3.org/2000/svg" xmlns:xlink="http://www.w3.org/1999/xlink" width="200px" height="300px" viewBox="0 0 200 300" version="1.1">
<g id="surface1">
<path style=" stroke:none;fill-rule:nonzero;fill:rgb(7.45098%,7.45098%,9.411765%);fill-opacity:1;" d="M 65.660156 248.644531 L 63.609375 208.144531 C 62.96875 204.5625 62.398438 200.976562 61.796875 197.394531 L 60.089844 186.628906 C 58.957031 179.449219 57.90625 172.257812 56.851562 165.0625 C 55.824219 157.867188 54.800781 150.671875 53.851562 143.472656 L 52.429688 132.660156 C 52.019531 129.21875 51.574219 125.78125 51.1875 122.34375 C 50.851562 122.238281 50.519531 122.136719 50.1875 122.023438 L 50.175781 122.132812 L 50.085938 123.140625 C 50.027344 123.808594 50.007812 124.480469 49.980469 125.15625 C 49.910156 126.5 49.886719 127.847656 49.847656 129.195312 C 49.800781 131.886719 49.78125 134.585938 49.777344 137.285156 C 49.742188 142.675781 49.75 148.070312 49.796875 153.464844 C 49.855469 164.253906 49.910156 175.039062 50.027344 185.824219 L 50.246094 218.195312 L 50.328125 234.378906 C 50.328125 234.378906 50.328125 242.96875 50.328125 250.558594 C 62.859375 249.410156 65.660156 248.644531 65.660156 248.644531 Z M 87.394531 135.136719 C 86.554688 133.949219 85.882812 132.644531 85.398438 131.261719 C 84.878906 129.898438 84.4375 128.507812 84.03125 127.105469 C 83.222656 124.304688 82.578125 121.464844 81.992188 118.617188 C 81.421875 115.753906 80.910156 112.890625 80.5 110.011719 C 80.070312 107.128906 79.734375 104.234375 79.496094 101.328125 C 79.496094 101.328125 74.574219 98.351562 73.207031 96.949219 C 72.242188 95.960938 70.484375 95.851562 69.523438 95.878906 C 69.234375 95.894531 68.949219 95.847656 68.683594 95.738281 C 68.414062 95.628906 68.175781 95.464844 67.976562 95.25 C 67.859375 95.152344 67.765625 95.019531 67.710938 94.875 C 67.65625 94.726562 67.636719 94.570312 67.65625 94.414062 C 67.675781 94.257812 67.730469 94.109375 67.820312 93.980469 C 67.910156 93.855469 68.03125 93.753906 68.167969 93.683594 C 68.535156 93.417969 68.984375 93.289062 69.4375 93.324219 C 70.609375 93.390625 73.210938 93.625 74.441406 94.449219 C 74.023438 94.101562 73.582031 93.789062 73.121094 93.507812 C 58.980469 89.917969 35.742188 92.59375 35.742188 92.59375 C 35.742188 92.59375 35.324219 95.734375 34.695312 101.480469 C 35.332031 100.273438 36.039062 99.105469 36.8125 97.984375 C 37.191406 97.433594 37.570312 96.878906 37.960938 96.335938 C 38.359375 95.769531 38.785156 95.226562 39.234375 94.707031 C 39.144531 95.414062 38.953125 96.101562 38.664062 96.75 C 38.394531 97.394531 38.058594 98.011719 37.667969 98.589844 C 37.28125 99.167969 36.835938 99.707031 36.347656 100.199219 C 35.859375 100.707031 35.304688 101.136719 34.695312 101.480469 C 32.3125 122.984375 26.832031 180.964844 28.457031 246.722656 C 35.296875 249.933594 42.835938 251.253906 50.328125 250.558594 C 50.121094 245.171875 49.988281 239.773438 49.820312 234.386719 L 49.457031 218.203125 C 49.230469 207.417969 49.117188 196.625 48.992188 185.839844 C 48.945312 175.046875 48.894531 164.253906 48.992188 153.460938 C 49.050781 148.0625 49.132812 142.675781 49.269531 137.277344 C 49.351562 134.578125 49.453125 131.882812 49.578125 129.183594 C 49.65625 127.839844 49.710938 126.492188 49.820312 125.140625 C 49.875 124.46875 49.921875 123.800781 50.015625 123.125 L 50.132812 122.125 L 50.152344 122.007812 C 49.855469 121.90625 49.554688 121.804688 49.257812 121.695312 C 48.367188 121.347656 47.484375 120.988281 46.621094 120.566406 C 45.746094 120.15625 44.902344 119.679688 44.09375 119.144531 C 45.042969 119.296875 45.984375 119.507812 46.910156 119.789062 C 47.824219 120.054688 48.71875 120.371094 49.617188 120.695312 C 50.5 121.042969 51.382812 121.394531 52.25 121.796875 C 53.121094 122.191406 53.96875 122.628906 54.820312 123.113281 C 53.859375 123.035156 52.90625 122.859375 51.980469 122.582031 C 51.71875 122.511719 51.46875 122.429688 51.214844 122.355469 C 51.8125 125.757812 52.359375 129.167969 52.933594 132.578125 L 54.640625 143.339844 C 55.777344 150.523438 56.824219 157.710938 57.878906 164.90625 C 58.902344 172.101562 59.929688 179.296875 60.878906 186.507812 L 62.292969 197.320312 C 62.730469 200.921875 63.203125 204.527344 63.609375 208.144531 L 70.152344 248.257812 C 70.152344 248.257812 91.277344 253.0625 105.304688 248.449219 C 105.304688 248.449219 93.265625 179.792969 87.394531 135.136719 Z M 49.535156 104.96875 C 49.457031 106.527344 49.363281 108.082031 49.203125 109.636719 C 49.058594 111.1875 48.871094 112.742188 48.585938 114.28125 C 48.441406 112.714844 48.402344 111.15625 48.394531 109.59375 C 48.386719 108.035156 48.441406 106.472656 48.5 104.921875 C 48.585938 103.359375 48.679688 101.804688 48.832031 100.253906 C 48.984375 98.699219 49.171875 97.152344 49.457031 95.605469 C 49.597656 97.171875 49.636719 98.734375 49.644531 100.292969 C 49.648438 101.855469 49.601562 103.414062 49.535156 104.96875 Z M 49.457031 94.742188 C 49.253906 94.734375 49.0625 94.644531 48.925781 94.496094 C 48.785156 94.347656 48.707031 94.148438 48.707031 93.941406 C 48.707031 93.734375 48.785156 93.535156 48.925781 93.382812 C 49.0625 93.234375 49.253906 93.148438 49.457031 93.140625 C 49.660156 93.148438 49.851562 93.234375 49.988281 93.382812 C 50.128906 93.535156 50.207031 93.734375 50.207031 93.941406 C 50.207031 94.148438 50.128906 94.347656 49.988281 94.496094 C 49.851562 94.644531 49.660156 94.734375 49.457031 94.742188 Z M 76.929688 107.449219 C 76.203125 107.304688 75.484375 107.117188 74.777344 106.890625 C 73.351562 106.402344 72.015625 105.660156 70.835938 104.703125 C 69.671875 103.703125 68.730469 102.457031 68.066406 101.054688 C 67.394531 99.6875 67.082031 98.160156 67.160156 96.628906 C 67.480469 98.058594 68.027344 99.421875 68.777344 100.667969 C 69.515625 101.878906 70.433594 102.964844 71.5 103.886719 C 72.039062 104.332031 72.613281 104.742188 73.210938 105.105469 C 73.808594 105.484375 74.429688 105.820312 75.070312 106.113281 C 75.390625 106.273438 75.71875 106.414062 76.054688 106.535156 L 77.054688 106.9375 C 77.738281 107.164062 78.429688 107.367188 79.125 107.632812 C 78.394531 107.597656 77.664062 107.535156 76.929688 107.449219 Z M 84.261719 102.9375 C 84.25 101.894531 84.269531 100.996094 84.328125 100.246094 L 83.292969 100.933594 C 82.105469 101.496094 80.769531 101.636719 79.496094 101.328125 C 80.128906 104.171875 80.726562 107.015625 81.289062 109.859375 L 83.007812 118.398438 C 83.574219 121.238281 84.175781 124.070312 84.8125 126.894531 C 85.144531 128.296875 85.484375 129.707031 85.875 131.097656 C 86.226562 132.5 86.738281 133.855469 87.394531 135.136719 C 85.542969 121.042969 84.308594 109.335938 84.261719 102.9375 Z M 84.261719 102.9375 "/>
<path style=" stroke:none;fill-rule:nonzero;fill:rgb(7.45098%,7.45098%,9.411765%);fill-opacity:1;" d="M 82.347656 91.402344 C 82.269531 89.242188 81.382812 87.191406 79.871094 85.683594 C 77.386719 84.253906 79.085938 88.328125 79.179688 88.5625 C 79.148438 88.527344 79.007812 88.375 78.773438 88.164062 C 78.628906 87.421875 78.496094 86.640625 78.371094 85.835938 L 78.351562 85.710938 C 77.992188 83.394531 77.6875 80.863281 77.441406 78.210938 C 77.441406 78.1875 77.441406 78.160156 77.433594 78.136719 C 77.210938 73.105469 77.785156 68.070312 79.128906 63.226562 C 80.109375 59.332031 82.304688 59.199219 82.304688 59.199219 L 95.582031 74.359375 L 82.863281 89.71875 C 82.527344 90.210938 82.347656 90.800781 82.347656 91.402344 Z M 82.347656 91.402344 "/>
<path style=" stroke:none;fill-rule:nonzero;fill:rgb(7.45098%,7.45098%,9.411765%);fill-opacity:1;" d="M 260.359375 164.988281 C 260.359375 164.988281 227.210938 199.886719 207.765625 196.050781 C 205.789062 195.671875 203.773438 195.539062 201.765625 195.664062 C 197.816406 193.414062 193.914062 191.105469 190.003906 188.808594 C 186.101562 186.492188 182.230469 184.140625 178.421875 181.683594 C 174.589844 179.257812 170.839844 176.707031 167.21875 173.996094 C 166.308594 173.316406 165.386719 172.652344 164.523438 171.917969 C 163.652344 171.195312 162.742188 170.515625 161.902344 169.757812 L 159.367188 167.46875 C 158.59375 166.636719 157.808594 165.8125 157.003906 164.988281 C 159.628906 168.789062 163.0625 171.929688 166.585938 174.839844 C 167.46875 175.570312 168.351562 176.304688 169.28125 176.972656 L 172.035156 179.019531 C 173.914062 180.320312 175.792969 181.613281 177.71875 182.839844 C 181.566406 185.285156 185.492188 187.601562 189.503906 189.734375 C 193.515625 191.886719 197.589844 193.886719 201.765625 195.664062 C 183.832031 196.691406 164.90625 215.714844 162.890625 219.851562 C 160.644531 224.457031 116.140625 175.324219 105.945312 144.351562 C 102.929688 135.179688 95.023438 119.222656 84.394531 103.167969 C 84.34375 103.097656 84.300781 103.019531 84.261719 102.9375 C 84.039062 102.527344 83.6875 101.785156 83.292969 100.933594 L 84.328125 100.246094 C 84.964844 99.714844 85.480469 99.046875 85.835938 98.289062 C 86.179688 98.691406 86.414062 98.929688 86.414062 98.929688 C 86.414062 98.929688 104.738281 85.113281 108.855469 80.117188 C 112.96875 75.132812 108.855469 70.136719 108.855469 70.136719 C 108.855469 70.136719 96.703125 50.753906 90.527344 44.421875 C 88.542969 42.511719 86.101562 41.175781 83.445312 40.550781 C 97.570312 43.375 121.929688 65.667969 157.003906 115.410156 C 203.371094 181.179688 260.359375 164.988281 260.359375 164.988281 Z M 260.359375 164.988281 "/>
<path style=" stroke:none;fill-rule:nonzero;fill:rgb(7.45098%,7.45098%,9.411765%);fill-opacity:1;" d="M 23.585938 289.371094 C 24.0625 289.351562 24.539062 289.335938 25.011719 289.296875 C 18.890625 289.9375 11.40625 289.085938 9.160156 281.882812 C 9.679688 280.957031 10.367188 280.140625 11.1875 279.476562 C 11.34375 279.324219 11.53125 279.210938 11.738281 279.136719 C 11.945312 279.066406 12.160156 279.039062 12.378906 279.058594 C 12.59375 279.078125 12.800781 279.144531 12.992188 279.253906 C 13.179688 279.363281 13.347656 279.511719 13.476562 279.6875 C 14.101562 280.496094 14.617188 281.390625 15.015625 282.339844 C 15.488281 283.304688 15.964844 284.292969 16.515625 285.273438 C 17.085938 286.296875 17.84375 287.203125 18.738281 287.941406 C 19.679688 288.640625 20.777344 289.082031 21.933594 289.226562 C 22.480469 289.3125 23.03125 289.359375 23.585938 289.371094 Z M 23.585938 289.371094 "/>
<path style=" stroke:none;fill-rule:nonzero;fill:rgb(7.45098%,7.45098%,9.411765%);fill-opacity:1;" d="M 57.859375 270.101562 C 57.261719 269.296875 56.726562 267.855469 56.597656 265.25 C 56.28125 258.757812 51.675781 262.394531 51.675781 262.394531 C 43.835938 266.65625 41.683594 260.058594 41.101562 259.015625 C 40.515625 257.980469 35.625 257.394531 33.679688 260.5 C 32.972656 261.496094 32.097656 262.355469 31.097656 263.035156 C 31.980469 263.144531 32.839844 263.390625 33.652344 263.757812 C 34.472656 264.109375 35.25 264.550781 35.96875 265.082031 C 36.714844 265.609375 37.371094 266.261719 37.90625 267.007812 C 38.511719 267.742188 38.820312 268.683594 38.769531 269.644531 C 38.347656 268.90625 37.796875 268.25 37.144531 267.71875 C 36.527344 267.179688 35.871094 266.675781 35.195312 266.183594 L 33.148438 264.683594 C 32.457031 264.171875 31.773438 263.648438 31.097656 263.042969 C 29.59375 264.121094 28.011719 265.082031 26.367188 265.917969 C 27.234375 265.914062 28.09375 266.09375 28.894531 266.441406 C 29.699219 266.78125 30.449219 267.246094 31.117188 267.820312 C 31.796875 268.390625 32.367188 269.089844 32.796875 269.875 C 33.242188 270.652344 33.503906 271.523438 33.5625 272.417969 C 32.976562 271.742188 32.523438 271.082031 31.953125 270.503906 C 31.425781 269.921875 30.859375 269.371094 30.261719 268.859375 C 29.074219 267.820312 27.773438 266.933594 26.367188 265.917969 C 25.117188 266.566406 24.222656 266.96875 24.222656 266.96875 C 23.207031 267.296875 22.257812 267.636719 21.375 267.976562 C 22.246094 268.1875 23.082031 268.539062 23.851562 269.019531 C 24.628906 269.480469 25.347656 270.046875 25.988281 270.695312 C 26.652344 271.347656 27.199219 272.117188 27.605469 272.964844 C 28.039062 273.808594 28.203125 274.773438 28.078125 275.722656 C 27.710938 274.941406 27.253906 274.207031 26.722656 273.527344 C 26.207031 272.871094 25.648438 272.246094 25.050781 271.660156 C 23.890625 270.441406 22.601562 269.332031 21.367188 267.976562 C 7.15625 273.460938 8.757812 280.253906 8.757812 280.253906 C 8.855469 280.804688 8.988281 281.347656 9.15625 281.882812 C 9.453125 280.792969 10.007812 279.789062 10.769531 278.964844 C 11.207031 278.496094 11.800781 278.210938 12.433594 278.167969 C 13.089844 278.183594 13.714844 278.453125 14.1875 278.917969 C 14.621094 279.316406 14.992188 279.78125 15.292969 280.292969 C 15.601562 280.785156 15.851562 281.257812 16.125 281.738281 C 16.640625 282.707031 17.121094 283.675781 17.65625 284.574219 C 18.128906 285.464844 18.757812 286.257812 19.507812 286.917969 C 19.703125 287.054688 19.882812 287.21875 20.085938 287.347656 L 20.722656 287.699219 C 21.183594 287.898438 21.65625 288.0625 22.136719 288.183594 C 24.195312 288.597656 26.289062 288.765625 28.382812 288.695312 C 31.480469 287.855469 34.402344 286.445312 37.003906 284.527344 C 43.753906 279.667969 51.296875 279.925781 56.351562 277.152344 C 56.460938 277.09375 56.566406 277.03125 56.671875 276.976562 C 57.230469 276.640625 57.710938 276.183594 58.078125 275.640625 C 58.445312 275.09375 58.695312 274.472656 58.808594 273.820312 C 58.921875 273.167969 58.894531 272.496094 58.730469 271.855469 C 58.566406 271.210938 58.269531 270.613281 57.859375 270.101562 Z M 48.382812 270.953125 C 47.566406 271.59375 46.722656 272.199219 45.851562 272.757812 C 44.984375 273.316406 44.085938 273.835938 43.171875 274.304688 C 42.246094 274.796875 41.285156 275.207031 40.289062 275.53125 C 41.007812 274.757812 41.789062 274.046875 42.621094 273.40625 C 43.4375 272.765625 44.28125 272.160156 45.148438 271.601562 C 46.011719 271.042969 46.910156 270.53125 47.832031 270.054688 C 48.753906 269.5625 49.71875 269.148438 50.710938 268.828125 C 49.996094 269.601562 49.214844 270.3125 48.382812 270.953125 Z M 48.382812 270.953125 "/>
<path style=" stroke:none;fill-rule:nonzero;fill:rgb(100%,100%,100%);fill-opacity:1;" d="M 25.011719 289.296875 C 25.171875 289.28125 25.332031 289.261719 25.488281 289.25 C 25.398438 289.253906 25.308594 289.269531 25.21875 289.28125 C 25.152344 289.289062 25.078125 289.296875 25.011719 289.296875 Z M 25.011719 289.296875 "/>
<path style=" stroke:none;fill-rule:nonzero;fill:rgb(100%,100%,100%);fill-opacity:1;" d="M 27.074219 288.996094 C 26.996094 289.015625 26.910156 289.027344 26.824219 289.050781 C 26.648438 289.085938 26.476562 289.109375 26.304688 289.132812 C 26.5625 289.089844 26.824219 289.050781 27.074219 288.996094 Z M 27.074219 288.996094 "/>
<path style=" stroke:none;fill-rule:nonzero;fill:rgb(7.45098%,7.45098%,9.411765%);fill-opacity:1;" d="M 41.101562 259.019531 C 41.160156 257.613281 41.261719 256.238281 41.292969 254.863281 C 41.351562 253.484375 41.285156 252.101562 41.101562 250.734375 C 41.652344 252.039062 41.894531 253.457031 41.8125 254.875 C 41.78125 256.285156 41.542969 257.683594 41.101562 259.019531 Z M 41.101562 259.019531 "/>
<path style=" stroke:none;fill-rule:nonzero;fill:rgb(7.45098%,7.45098%,9.411765%);fill-opacity:1;" d="M 55.113281 261.589844 C 54.871094 260.625 54.695312 259.644531 54.539062 258.667969 C 54.375 257.6875 54.257812 256.699219 54.15625 255.710938 C 54.070312 254.722656 53.988281 253.734375 53.972656 252.738281 C 53.9375 251.742188 53.964844 250.746094 54.050781 249.753906 L 54.371094 252.710938 L 54.675781 255.660156 C 54.761719 256.644531 54.863281 257.628906 54.933594 258.617188 C 55.007812 259.605469 55.082031 260.59375 55.113281 261.589844 Z M 55.113281 261.589844 "/>
<path style=" stroke:none;fill-rule:nonzero;fill:rgb(7.45098%,7.45098%,9.411765%);fill-opacity:1;" d="M 48.203125 15.511719 C 48.164062 17.089844 47.980469 18.664062 47.652344 20.207031 C 47.464844 20.953125 47.347656 21.714844 47.296875 22.480469 C 47.25 23.261719 47.253906 24.039062 47.308594 24.820312 C 47.054688 24.0625 46.914062 23.273438 46.890625 22.476562 C 46.867188 21.671875 46.953125 20.871094 47.144531 20.09375 C 47.472656 18.570312 47.773438 17.03125 48.203125 15.511719 Z M 48.203125 15.511719 "/>
<path style=" stroke:none;fill-rule:nonzero;fill:rgb(7.45098%,7.45098%,9.411765%);fill-opacity:1;" d="M 46.8125 20.472656 C 46.8125 20.472656 50.648438 19.308594 52.15625 21.777344 C 52.15625 21.777344 53.84375 21.429688 54.636719 22.265625 C 55.464844 21.664062 56.460938 21.351562 57.476562 21.371094 C 58.488281 21.390625 59.472656 21.742188 60.28125 22.375 C 60.28125 22.375 60.523438 26.503906 57.335938 26.648438 C 57.335938 26.648438 54.089844 25.988281 54.570312 22.921875 C 54.570312 22.921875 53.992188 21.777344 52.089844 22.429688 C 52.089844 22.429688 50.71875 26.160156 48.402344 24.929688 C 46.082031 23.703125 46.8125 20.472656 46.8125 20.472656 Z M 46.8125 20.472656 "/>
<path style=" stroke:none;fill-rule:nonzero;fill:rgb(7.45098%,7.45098%,9.411765%);fill-opacity:1;" d="M 51.820312 42.445312 C 53.046875 42.570312 54.265625 42.765625 55.46875 43.035156 C 56.71875 43.28125 57.949219 43.613281 59.152344 44.027344 L 59.8125 44.269531 L 59.335938 44.703125 C 58.511719 45.453125 57.640625 46.164062 56.863281 46.964844 C 56.085938 47.769531 55.351562 48.613281 54.65625 49.492188 L 54.523438 49.65625 L 54.292969 49.546875 C 53.652344 49.234375 53.007812 48.925781 52.382812 48.589844 L 50.507812 47.566406 C 49.882812 47.226562 49.261719 46.878906 48.648438 46.511719 C 48.035156 46.148438 47.4375 45.765625 46.835938 45.382812 L 46.015625 44.855469 L 46.863281 44.464844 C 48.480469 43.707031 50.132812 43.03125 51.820312 42.445312 Z M 51.832031 42.550781 C 50.285156 43.628906 48.808594 44.542969 47.316406 45.394531 L 47.339844 44.480469 C 47.964844 44.820312 48.589844 45.164062 49.203125 45.523438 C 49.820312 45.882812 50.421875 46.261719 51.023438 46.648438 L 52.824219 47.796875 C 53.425781 48.1875 54.007812 48.605469 54.589844 49.019531 L 54.230469 49.070312 C 55.070312 48.332031 55.871094 47.554688 56.632812 46.734375 C 57.390625 45.914062 58.0625 45.003906 58.773438 44.136719 L 58.957031 44.8125 C 57.753906 44.585938 56.570312 44.277344 55.410156 43.882812 C 54.234375 43.503906 53.054688 43.085938 51.832031 42.550781 Z M 51.832031 42.550781 "/>
<path style=" stroke:none;fill-rule:nonzero;fill:rgb(7.45098%,7.45098%,9.411765%);fill-opacity:1;" d="M 59.054688 44.417969 L 54.445312 49.28125 L 57.898438 53.25 L 65.390625 47.441406 Z M 59.054688 44.417969 "/>
<path style=" stroke:none;fill-rule:nonzero;fill:rgb(7.45098%,7.45098%,9.411765%);fill-opacity:1;" d="M 49.753906 31.089844 C 50.246094 31.949219 50.652344 32.859375 50.972656 33.800781 C 51.304688 34.742188 51.566406 35.707031 51.753906 36.691406 C 51.949219 37.671875 52.0625 38.667969 52.09375 39.667969 C 52.136719 40.667969 52.074219 41.667969 51.914062 42.652344 C 51.867188 42.15625 51.886719 41.660156 51.828125 41.167969 C 51.800781 40.675781 51.761719 40.1875 51.695312 39.699219 C 51.578125 38.726562 51.441406 37.753906 51.246094 36.792969 C 51.066406 35.832031 50.839844 34.878906 50.59375 33.925781 C 50.34375 32.972656 50.058594 32.03125 49.753906 31.089844 Z M 49.753906 31.089844 "/>
<path style=" stroke:none;fill-rule:nonzero;fill:rgb(7.45098%,7.45098%,9.411765%);fill-opacity:1;" d="M 62.535156 31.273438 C 62.585938 32.097656 62.679688 32.910156 62.789062 33.710938 C 62.894531 34.507812 63.054688 35.296875 63.277344 36.070312 C 63.480469 36.835938 63.792969 37.570312 64.203125 38.242188 C 64.628906 38.917969 65.191406 39.492188 65.851562 39.921875 C 65.066406 39.65625 64.375 39.15625 63.871094 38.484375 C 63.371094 37.808594 63 37.039062 62.78125 36.222656 C 62.550781 35.417969 62.417969 34.589844 62.386719 33.75 C 62.339844 32.921875 62.390625 32.089844 62.535156 31.273438 Z M 62.535156 31.273438 "/>
<path style=" stroke:none;fill-rule:nonzero;fill:rgb(7.45098%,7.45098%,9.411765%);fill-opacity:1;" d="M 47.105469 44.980469 C 45.882812 45.457031 44.667969 45.945312 43.492188 46.519531 C 42.3125 47.066406 41.15625 47.671875 40.03125 48.339844 C 37.777344 49.632812 35.675781 51.183594 33.757812 52.960938 C 29.875 56.519531 26.449219 60.574219 23.5625 65.019531 C 22.847656 66.132812 22.199219 67.292969 21.625 68.488281 C 21.488281 68.777344 21.375 69.074219 21.285156 69.382812 C 21.210938 69.699219 21.15625 70.019531 21.125 70.339844 C 21.054688 70.980469 21.074219 71.628906 21.175781 72.269531 C 21.226562 72.585938 21.296875 72.898438 21.386719 73.203125 C 21.433594 73.359375 21.480469 73.5 21.535156 73.648438 L 21.742188 74.105469 L 22.542969 75.941406 C 23.078125 77.164062 23.582031 78.402344 24.101562 79.632812 C 26.195312 84.550781 28.066406 89.550781 29.792969 94.621094 L 29.59375 94.484375 C 30.089844 94.519531 30.585938 94.59375 31.074219 94.703125 L 32.507812 95.011719 L 33.9375 95.324219 C 34.410156 95.433594 34.890625 95.507812 35.371094 95.550781 L 35.371094 95.65625 C 34.878906 95.648438 34.390625 95.605469 33.902344 95.527344 L 31.011719 95.066406 C 30.542969 94.988281 30.070312 94.945312 29.59375 94.933594 L 29.453125 94.933594 L 29.390625 94.792969 C 27.136719 89.941406 25.03125 85.019531 23.144531 80.011719 C 22.671875 78.761719 22.179688 77.519531 21.722656 76.261719 L 21.03125 74.378906 L 20.863281 73.90625 C 20.8125 73.734375 20.761719 73.554688 20.722656 73.386719 C 20.484375 72.367188 20.441406 71.304688 20.605469 70.269531 C 20.660156 69.925781 20.734375 69.585938 20.832031 69.253906 C 20.941406 68.921875 21.078125 68.601562 21.246094 68.296875 C 21.871094 67.097656 22.5625 65.957031 23.285156 64.835938 C 24.742188 62.601562 26.242188 60.394531 27.839844 58.253906 C 29.421875 56.089844 31.195312 54.082031 33.136719 52.25 C 34.121094 51.335938 35.167969 50.496094 36.261719 49.726562 C 37.363281 48.976562 38.507812 48.292969 39.6875 47.683594 C 40.867188 47.074219 42.074219 46.53125 43.304688 46.050781 C 44.539062 45.585938 45.796875 45.195312 47.074219 44.878906 Z M 47.105469 44.980469 "/>
<path style=" stroke:none;fill-rule:nonzero;fill:rgb(7.45098%,7.45098%,9.411765%);fill-opacity:1;" d="M 42.902344 51.148438 C 42.421875 54.628906 41.851562 58.089844 41.25 61.546875 C 40.636719 65 40.015625 68.449219 39.246094 71.871094 C 38.503906 75.296875 37.75 78.722656 37.234375 82.195312 C 36.953125 83.925781 36.71875 85.664062 36.519531 87.402344 C 36.421875 88.273438 36.328125 89.144531 36.257812 90.011719 C 36.167969 90.859375 36.136719 91.707031 36.160156 92.554688 L 35.734375 92.167969 C 38.859375 92.023438 41.984375 91.945312 45.109375 91.867188 C 48.238281 91.785156 51.363281 91.769531 54.492188 91.804688 C 57.621094 91.839844 60.746094 91.941406 63.875 92.101562 C 65.4375 92.203125 67 92.3125 68.5625 92.476562 C 69.339844 92.5625 70.121094 92.667969 70.894531 92.800781 C 71.6875 92.890625 72.457031 93.121094 73.167969 93.476562 L 73.113281 93.566406 C 72.761719 93.40625 72.390625 93.300781 72.011719 93.257812 C 71.628906 93.195312 71.242188 93.148438 70.855469 93.113281 C 70.082031 93.039062 69.304688 93.007812 68.527344 92.972656 C 66.96875 92.902344 65.410156 92.882812 63.851562 92.875 C 60.730469 92.835938 57.609375 92.875 54.488281 92.898438 L 35.757812 93.023438 L 35.339844 93.023438 L 35.332031 92.636719 C 35.332031 91.730469 35.40625 90.824219 35.558594 89.929688 C 35.683594 89.054688 35.832031 88.1875 35.980469 87.320312 L 36.894531 82.132812 C 37.535156 78.683594 38.015625 75.207031 38.539062 71.734375 C 39.03125 68.257812 39.710938 64.8125 40.417969 61.378906 C 41.140625 57.945312 41.910156 54.523438 42.800781 51.125 Z M 42.902344 51.148438 "/>
<path style=" stroke:none;fill-rule:nonzero;fill:rgb(7.45098%,7.45098%,9.411765%);fill-opacity:1;" d="M 32.980469 119.121094 C 32.144531 118.460938 31.457031 117.628906 30.960938 116.675781 C 30.707031 116.203125 30.476562 115.714844 30.273438 115.21875 L 29.976562 114.464844 L 29.734375 113.699219 C 29.132812 111.636719 28.789062 109.507812 28.703125 107.359375 C 28.660156 106.289062 28.683594 105.222656 28.699219 104.160156 C 28.792969 103.097656 28.820312 102.03125 28.972656 100.980469 C 29.121094 99.929688 29.261719 98.878906 29.472656 97.84375 C 29.707031 96.808594 29.933594 95.777344 30.222656 94.757812 C 30.226562 95.824219 30.171875 96.875 30.117188 97.921875 L 30.003906 101.0625 L 29.957031 104.1875 C 29.976562 105.222656 29.964844 106.261719 30.03125 107.292969 L 30.113281 108.839844 C 30.140625 109.359375 30.226562 109.863281 30.265625 110.378906 C 30.300781 110.894531 30.378906 111.402344 30.464844 111.910156 C 30.539062 112.417969 30.617188 112.925781 30.734375 113.425781 C 31.0625 115.46875 31.832031 117.414062 32.980469 119.121094 Z M 32.980469 119.121094 "/>
<path style=" stroke:none;fill-rule:nonzero;fill:rgb(7.45098%,7.45098%,9.411765%);fill-opacity:1;" d="M 33.421875 112.402344 C 32.78125 112.386719 32.167969 112.121094 31.707031 111.660156 C 31.277344 111.222656 30.976562 110.671875 30.835938 110.066406 C 30.625 108.925781 30.589844 107.761719 30.734375 106.613281 L 31.144531 99.828125 L 31.085938 106.621094 C 31.003906 107.726562 31.085938 108.835938 31.328125 109.917969 C 31.464844 110.414062 31.734375 110.867188 32.105469 111.214844 C 32.460938 111.539062 32.914062 111.71875 33.386719 111.722656 Z M 33.421875 112.402344 "/>
<path style=" stroke:none;fill-rule:nonzero;fill:rgb(7.45098%,7.45098%,9.411765%);fill-opacity:1;" d="M 71.652344 291.828125 C 71.101562 291.882812 70.546875 291.894531 69.992188 291.863281 C 68.832031 291.84375 67.695312 291.515625 66.6875 290.917969 C 65.722656 290.277344 64.886719 289.457031 64.21875 288.5 C 63.570312 287.578125 63 286.644531 62.425781 285.730469 C 61.941406 284.828125 61.339844 283.992188 60.636719 283.253906 C 60.335938 282.949219 59.9375 282.765625 59.511719 282.742188 C 59.070312 282.765625 58.652344 282.957031 58.339844 283.277344 C 57.59375 284.027344 56.988281 284.914062 56.558594 285.890625 C 59.507812 292.792969 66.988281 292.878906 72.996094 291.625 C 72.554688 291.699219 72.105469 291.761719 71.652344 291.828125 Z M 103.84375 269.101562 C 103.175781 268.359375 102.496094 266.972656 102.113281 264.40625 C 101.148438 257.980469 96.929688 262.070312 96.929688 262.070312 C 89.554688 267.125 86.761719 260.789062 86.078125 259.8125 C 85.398438 258.839844 80.46875 258.769531 78.839844 262.0625 C 78.238281 263.121094 77.457031 264.066406 76.53125 264.847656 C 77.417969 264.867188 78.292969 265.019531 79.132812 265.304688 C 79.980469 265.570312 80.796875 265.925781 81.570312 266.375 C 82.363281 266.824219 83.082031 267.40625 83.695312 268.089844 C 84.367188 268.761719 84.765625 269.667969 84.816406 270.625 C 84.320312 269.9375 83.703125 269.347656 83.003906 268.882812 C 82.332031 268.414062 81.636719 267.976562 80.914062 267.558594 L 78.730469 266.277344 C 77.992188 265.84375 77.261719 265.394531 76.523438 264.855469 C 75.136719 266.082031 73.660156 267.203125 72.113281 268.207031 C 72.972656 268.113281 73.839844 268.203125 74.667969 268.464844 C 75.503906 268.722656 76.296875 269.109375 77.015625 269.609375 C 77.746094 270.113281 78.382812 270.746094 78.894531 271.476562 C 79.410156 272.203125 79.753906 273.042969 79.898438 273.929688 C 79.253906 273.316406 78.734375 272.703125 78.113281 272.195312 C 77.527344 271.667969 76.910156 271.179688 76.265625 270.734375 C 74.980469 269.824219 73.605469 269.074219 72.105469 268.214844 C 70.921875 268.992188 70.074219 269.480469 70.074219 269.480469 C 69.097656 269.917969 68.183594 270.347656 67.332031 270.785156 C 68.226562 270.902344 69.09375 271.164062 69.90625 271.558594 C 70.726562 271.941406 71.496094 272.425781 72.199219 273.003906 C 72.921875 273.585938 73.542969 274.292969 74.03125 275.097656 C 74.546875 275.890625 74.804688 276.832031 74.773438 277.789062 C 74.328125 277.046875 73.804688 276.359375 73.207031 275.742188 C 72.625 275.144531 72.011719 274.585938 71.363281 274.066406 C 70.082031 272.976562 68.691406 272.003906 67.332031 270.785156 C 53.738281 277.710938 56.003906 284.308594 56.003906 284.308594 C 56.152344 284.847656 56.339844 285.375 56.558594 285.890625 C 56.75 284.769531 57.203125 283.714844 57.875 282.816406 C 58.261719 282.300781 58.824219 281.957031 59.449219 281.847656 C 60.101562 281.796875 60.753906 282 61.273438 282.414062 C 61.742188 282.769531 62.15625 283.191406 62.507812 283.667969 C 62.859375 284.125 63.152344 284.566406 63.46875 285.015625 C 64.085938 285.921875 64.65625 286.84375 65.28125 287.679688 C 65.835938 288.519531 66.539062 289.242188 67.351562 289.820312 C 67.558594 289.9375 67.757812 290.078125 67.96875 290.1875 L 68.640625 290.472656 C 69.117188 290.617188 69.601562 290.730469 70.09375 290.808594 C 72.183594 291 74.292969 290.949219 76.371094 290.660156 C 79.363281 289.5 82.128906 287.789062 84.523438 285.617188 C 90.761719 280.082031 98.289062 279.550781 103.042969 276.265625 C 103.148438 276.199219 103.246094 276.125 103.339844 276.054688 C 103.863281 275.664062 104.296875 275.164062 104.609375 274.582031 C 104.925781 274.003906 105.113281 273.359375 105.160156 272.699219 C 105.207031 272.035156 105.113281 271.371094 104.886719 270.75 C 104.660156 270.128906 104.304688 269.566406 103.84375 269.101562 Z M 94.5 270.933594 C 93.75 271.65625 92.96875 272.339844 92.164062 272.988281 C 91.351562 273.636719 90.515625 274.238281 89.648438 274.808594 C 88.777344 275.394531 87.859375 275.902344 86.90625 276.328125 C 87.542969 275.488281 88.25 274.699219 89.011719 273.972656 C 89.761719 273.25 90.539062 272.5625 91.347656 271.914062 C 92.15625 271.265625 92.996094 270.660156 93.863281 270.09375 C 94.734375 269.503906 95.652344 268.996094 96.609375 268.570312 C 95.972656 269.414062 95.265625 270.207031 94.5 270.933594 Z M 94.5 270.933594 "/>
<path style=" stroke:none;fill-rule:nonzero;fill:rgb(100%,100%,100%);fill-opacity:1;" d="M 73.570312 291.503906 C 73.472656 291.523438 73.367188 291.550781 73.265625 291.578125 C 73.191406 291.59375 73.125 291.605469 73.054688 291.613281 C 73.226562 291.578125 73.398438 291.542969 73.570312 291.503906 Z M 73.570312 291.503906 "/>
<path style=" stroke:none;fill-rule:nonzero;fill:rgb(100%,100%,100%);fill-opacity:1;" d="M 72.109375 268.207031 L 72.105469 268.214844 C 72.105469 268.210938 72.105469 268.210938 72.101562 268.210938 C 72.101562 268.210938 72.101562 268.210938 72.101562 268.207031 C 72.097656 268.207031 72.097656 268.207031 72.097656 268.207031 Z M 72.109375 268.207031 "/>
<path style=" stroke:none;fill-rule:nonzero;fill:rgb(100%,100%,100%);fill-opacity:1;" d="M 76.53125 264.847656 L 76.523438 264.855469 C 76.523438 264.855469 76.523438 264.851562 76.523438 264.851562 C 76.523438 264.851562 76.523438 264.847656 76.519531 264.847656 Z M 76.53125 264.847656 "/>
<path style=" stroke:none;fill-rule:nonzero;fill:rgb(7.45098%,7.45098%,9.411765%);fill-opacity:1;" d="M 84.8125 261.589844 L 85.125 258.816406 C 85.222656 257.894531 85.328125 256.976562 85.402344 256.058594 C 85.492188 255.140625 85.53125 254.21875 85.546875 253.300781 C 85.582031 252.378906 85.484375 251.457031 85.261719 250.5625 C 85.675781 251.410156 85.910156 252.335938 85.945312 253.285156 C 86.015625 254.222656 86.007812 255.167969 85.917969 256.101562 C 85.835938 257.035156 85.703125 257.964844 85.515625 258.882812 C 85.339844 259.800781 85.105469 260.703125 84.8125 261.589844 Z M 84.8125 261.589844 "/>
<path style=" stroke:none;fill-rule:nonzero;fill:rgb(7.45098%,7.45098%,9.411765%);fill-opacity:1;" d="M 100.269531 263.035156 C 99.957031 261.976562 99.703125 260.902344 99.464844 259.824219 C 99.222656 258.75 99.023438 257.667969 98.832031 256.582031 C 98.65625 255.492188 98.484375 254.402344 98.367188 253.304688 C 98.230469 252.207031 98.152344 251.105469 98.132812 250 C 98.355469 251.082031 98.558594 252.160156 98.761719 253.242188 C 98.96875 254.324219 99.15625 255.40625 99.34375 256.488281 C 99.519531 257.574219 99.707031 258.660156 99.855469 259.75 C 100.011719 260.839844 100.167969 261.929688 100.269531 263.035156 Z M 100.269531 263.035156 "/>
<path style=" stroke:none;fill-rule:nonzero;fill:rgb(7.45098%,7.45098%,9.411765%);fill-opacity:1;" d="M 46.769531 15.703125 C 46.769531 15.703125 48.097656 17.160156 49.210938 13.308594 C 49.210938 13.308594 49.859375 11.605469 51.859375 12.992188 C 51.859375 12.992188 53.289062 13.894531 53.980469 12.453125 C 54.140625 12.269531 54.335938 12.121094 54.550781 12.015625 C 54.769531 11.910156 55.007812 11.855469 55.246094 11.847656 C 55.484375 11.839844 55.726562 11.886719 55.949219 11.980469 C 56.171875 12.070312 56.371094 12.210938 56.539062 12.386719 C 56.539062 12.386719 57 12.859375 58.058594 12.355469 C 59.121094 11.847656 60.847656 10.632812 61.5625 11.53125 C 62.28125 12.433594 61.289062 12.945312 62.132812 13.972656 C 62.972656 15.003906 63.964844 14.730469 63.691406 15.902344 C 63.414062 17.078125 64.308594 17.832031 64.171875 18.972656 C 64.039062 20.117188 63.625 26.726562 62.738281 27.34375 C 61.839844 28.132812 61.042969 29.03125 60.363281 30.027344 C 59.992188 30.507812 57.386719 30.855469 56.652344 29.882812 C 56.125 29.238281 55.472656 28.714844 54.734375 28.339844 C 54.734375 28.339844 53.242188 27.148438 52.136719 27.886719 C 52.136719 27.886719 49.867188 26.613281 48.472656 28.453125 C 48.472656 28.453125 47.390625 28.460938 47.273438 27.550781 C 47.214844 26.640625 47.226562 25.726562 47.308594 24.820312 C 47.308594 24.820312 46.757812 24.574219 46.738281 28.0625 C 46.722656 31.554688 48.476562 37.394531 48.792969 37.6875 C 49.109375 37.980469 51.785156 39.742188 57.386719 37.933594 C 62.988281 36.125 63.867188 32.746094 64.136719 31.875 C 64.425781 30.097656 64.597656 28.304688 64.660156 26.503906 C 64.675781 25.84375 64.46875 22.800781 66.332031 21.105469 C 66.332031 21.105469 67.558594 19.863281 68.179688 20.539062 C 68.179688 20.539062 69.488281 18.121094 69.117188 13.804688 C 69.082031 13.390625 68.964844 12.992188 68.765625 12.628906 C 68.570312 12.269531 68.300781 11.953125 67.980469 11.703125 C 67.921875 11.660156 67.859375 11.613281 67.800781 11.570312 C 67.25 11.144531 66.882812 10.515625 66.769531 9.820312 C 66.738281 9.589844 66.664062 9.367188 66.550781 9.164062 C 66.4375 8.960938 66.285156 8.785156 66.101562 8.644531 C 65.921875 8.503906 65.714844 8.402344 65.496094 8.34375 C 65.273438 8.285156 65.046875 8.269531 64.820312 8.304688 C 62.335938 8.332031 60.804688 7.519531 60.042969 7.792969 C 59.28125 8.066406 55.875 6.207031 52.800781 8.535156 C 51.410156 9.691406 49.828125 10.585938 48.128906 11.171875 C 47.546875 11.488281 44.789062 13.375 46.769531 15.703125 Z M 46.769531 15.703125 "/>
<path style=" stroke:none;fill-rule:nonzero;fill:rgb(7.45098%,7.45098%,9.411765%);fill-opacity:1;" d="M 68.179688 20.539062 C 68.515625 20.78125 68.742188 21.148438 68.816406 21.558594 C 68.878906 21.980469 68.820312 22.414062 68.648438 22.804688 C 68.375 23.535156 68.140625 24.277344 67.945312 25.03125 C 67.703125 25.8125 67.3125 26.535156 66.796875 27.164062 C 66.523438 27.484375 66.160156 27.71875 65.761719 27.835938 C 65.363281 27.921875 64.945312 27.847656 64.601562 27.628906 C 64.953125 27.742188 65.335938 27.726562 65.683594 27.585938 C 66.003906 27.429688 66.28125 27.191406 66.488281 26.894531 C 66.90625 26.269531 67.234375 25.582031 67.457031 24.855469 C 67.589844 24.488281 67.679688 24.132812 67.804688 23.738281 C 67.933594 23.351562 68.09375 22.980469 68.285156 22.628906 C 68.484375 22.3125 68.578125 21.941406 68.5625 21.566406 C 68.542969 21.191406 68.410156 20.832031 68.179688 20.539062 Z M 68.179688 20.539062 "/>
<path style=" stroke:none;fill-rule:nonzero;fill:rgb(7.45098%,7.45098%,9.411765%);fill-opacity:1;" d="M 50.085938 22.386719 C 50.234375 22.382812 50.375 22.316406 50.476562 22.207031 C 50.578125 22.097656 50.636719 21.953125 50.636719 21.800781 C 50.636719 21.648438 50.578125 21.5 50.476562 21.390625 C 50.375 21.28125 50.234375 21.21875 50.085938 21.214844 C 49.9375 21.21875 49.796875 21.28125 49.691406 21.390625 C 49.589844 21.5 49.53125 21.648438 49.53125 21.800781 C 49.53125 21.953125 49.589844 22.097656 49.691406 22.207031 C 49.796875 22.316406 49.9375 22.382812 50.085938 22.386719 Z M 50.085938 22.386719 "/>
<path style=" stroke:none;fill-rule:nonzero;fill:rgb(7.45098%,7.45098%,9.411765%);fill-opacity:1;" d="M 57.164062 23.347656 C 57.3125 23.34375 57.453125 23.28125 57.554688 23.167969 C 57.65625 23.058594 57.714844 22.914062 57.714844 22.761719 C 57.714844 22.609375 57.65625 22.464844 57.554688 22.355469 C 57.453125 22.246094 57.3125 22.179688 57.164062 22.175781 C 57.015625 22.179688 56.875 22.246094 56.769531 22.355469 C 56.667969 22.464844 56.609375 22.609375 56.609375 22.761719 C 56.609375 22.914062 56.667969 23.058594 56.769531 23.167969 C 56.875 23.28125 57.015625 23.34375 57.164062 23.347656 Z M 57.164062 23.347656 "/>
<path style=" stroke:none;fill-rule:nonzero;fill:rgb(7.45098%,7.45098%,9.411765%);fill-opacity:1;" d="M 47.640625 18.921875 C 48.460938 18.714844 49.3125 18.707031 50.132812 18.894531 C 50.546875 18.988281 50.949219 19.136719 51.328125 19.328125 C 51.707031 19.527344 52.042969 19.804688 52.3125 20.140625 C 51.574219 19.824219 50.808594 19.578125 50.023438 19.417969 C 49.246094 19.242188 48.460938 19.113281 47.640625 18.921875 Z M 47.640625 18.921875 "/>
<path style=" stroke:none;fill-rule:nonzero;fill:rgb(7.45098%,7.45098%,9.411765%);fill-opacity:1;" d="M 54.820312 20.398438 C 55.703125 20.09375 56.636719 19.980469 57.5625 20.058594 C 58.5 20.101562 59.410156 20.410156 60.191406 20.949219 C 59.308594 20.773438 58.417969 20.652344 57.523438 20.589844 C 56.632812 20.519531 55.746094 20.488281 54.820312 20.398438 Z M 54.820312 20.398438 "/>
<path style=" stroke:none;fill-rule:nonzero;fill:rgb(7.45098%,7.45098%,9.411765%);fill-opacity:1;" d="M 51.09375 25.617188 C 51.214844 25.792969 51.359375 25.957031 51.523438 26.097656 C 51.667969 26.226562 51.824219 26.339844 51.992188 26.4375 C 52.320312 26.644531 52.699219 26.796875 53.113281 27.050781 C 52.886719 27.128906 52.648438 27.15625 52.410156 27.128906 C 52.167969 27.097656 51.9375 27.019531 51.726562 26.894531 C 51.507812 26.765625 51.328125 26.578125 51.203125 26.351562 C 51.074219 26.132812 51.035156 25.867188 51.09375 25.617188 Z M 51.09375 25.617188 "/>
<path style=" stroke:none;fill-rule:nonzero;fill:rgb(7.45098%,7.45098%,9.411765%);fill-opacity:1;" d="M 67.058594 20.550781 C 65.984375 21.035156 64.871094 21.425781 63.734375 21.71875 C 62.601562 22.035156 61.449219 22.253906 60.28125 22.375 C 61.355469 21.886719 62.464844 21.496094 63.601562 21.203125 C 64.734375 20.886719 65.890625 20.667969 67.058594 20.550781 Z M 67.058594 20.550781 "/>
<path style=" stroke:none;fill-rule:nonzero;fill:rgb(7.45098%,7.45098%,9.411765%);fill-opacity:1;" d="M 57.898438 53.25 C 57.898438 53.25 47.753906 74.363281 47.640625 79.542969 L 51.058594 84.5 L 57.578125 80.3125 C 57.578125 80.3125 59.300781 57.664062 57.898438 53.25 Z M 57.898438 53.25 "/>
<path style=" stroke:none;fill-rule:nonzero;fill:rgb(7.45098%,7.45098%,9.411765%);fill-opacity:1;" d="M 79.15625 88.570312 C 78.722656 87.9375 78.4375 87.207031 78.316406 86.445312 C 78.289062 86.238281 78.292969 86.023438 78.335938 85.820312 C 78.359375 85.695312 78.410156 85.578125 78.488281 85.484375 C 78.566406 85.386719 78.667969 85.3125 78.785156 85.273438 C 78.996094 85.230469 79.210938 85.261719 79.402344 85.359375 C 79.582031 85.433594 79.742188 85.527344 79.910156 85.613281 L 79.914062 85.617188 L 79.921875 85.621094 C 80.328125 85.976562 80.703125 86.363281 81.046875 86.785156 C 81.375 87.21875 81.652344 87.691406 81.875 88.191406 C 82.300781 89.203125 82.472656 90.304688 82.378906 91.398438 L 82.375 91.386719 L 82.378906 91.441406 L 82.328125 91.441406 L 82.316406 91.417969 L 82.3125 91.40625 C 82.234375 91.144531 82.175781 90.886719 82.109375 90.628906 C 82.027344 90.378906 81.972656 90.121094 81.890625 89.875 C 81.742188 89.375 81.550781 88.898438 81.367188 88.414062 C 81.183594 87.933594 80.960938 87.464844 80.710938 87.015625 C 80.484375 86.546875 80.179688 86.121094 79.820312 85.75 L 79.832031 85.757812 C 79.539062 85.582031 79.128906 85.425781 78.890625 85.558594 C 78.695312 85.671875 78.75 86.054688 78.78125 86.386719 C 78.867188 87.085938 79.074219 87.800781 79.203125 88.550781 Z M 79.15625 88.570312 "/>
<path style=" stroke:none;fill-rule:nonzero;fill:rgb(7.45098%,7.45098%,9.411765%);fill-opacity:1;" d="M 75.480469 91.902344 C 74.648438 91.132812 73.832031 90.347656 72.976562 89.636719 C 72.769531 89.464844 72.550781 89.304688 72.320312 89.167969 C 72.21875 89.105469 72.109375 89.0625 71.996094 89.035156 L 71.589844 88.957031 C 71.054688 88.855469 70.511719 88.785156 69.964844 88.753906 C 69.414062 88.71875 68.851562 88.738281 68.28125 88.679688 C 68.128906 88.679688 67.976562 88.644531 67.835938 88.574219 C 67.699219 88.503906 67.578125 88.398438 67.488281 88.269531 C 67.398438 88.140625 67.347656 87.988281 67.335938 87.828125 C 67.324219 87.671875 67.351562 87.511719 67.421875 87.367188 C 67.6875 86.828125 68.152344 86.414062 68.714844 86.222656 C 69.25 86.011719 69.808594 85.871094 70.382812 85.804688 L 70.210938 86.066406 C 70.132812 85.804688 70.113281 85.527344 70.160156 85.261719 C 70.183594 85.113281 70.234375 84.976562 70.3125 84.851562 C 70.386719 84.726562 70.488281 84.617188 70.605469 84.53125 C 71.058594 84.269531 71.589844 84.175781 72.101562 84.265625 C 73.039062 84.40625 73.945312 84.695312 74.796875 85.117188 C 75.636719 85.53125 76.4375 86.03125 77.179688 86.605469 C 77.917969 87.179688 78.597656 87.832031 79.203125 88.550781 L 79.167969 88.585938 C 78.46875 87.984375 77.730469 87.433594 76.960938 86.933594 C 76.199219 86.429688 75.402344 85.992188 74.574219 85.621094 C 73.761719 85.246094 72.910156 84.972656 72.039062 84.796875 C 71.644531 84.707031 71.238281 84.753906 70.875 84.929688 C 70.730469 85.050781 70.625 85.210938 70.574219 85.390625 C 70.523438 85.574219 70.527344 85.765625 70.585938 85.945312 L 70.640625 86.195312 L 70.414062 86.207031 C 69.867188 86.21875 69.324219 86.304688 68.800781 86.460938 C 68.539062 86.523438 68.292969 86.644531 68.082031 86.8125 C 67.871094 86.980469 67.695312 87.191406 67.570312 87.433594 C 67.515625 87.550781 67.492188 87.679688 67.503906 87.8125 C 67.515625 87.941406 67.5625 88.0625 67.636719 88.167969 C 67.710938 88.273438 67.808594 88.355469 67.925781 88.40625 C 68.042969 88.457031 68.167969 88.476562 68.292969 88.460938 C 68.84375 88.460938 69.398438 88.382812 69.96875 88.363281 C 70.539062 88.335938 71.113281 88.378906 71.675781 88.484375 C 71.816406 88.507812 71.953125 88.546875 72.09375 88.578125 C 72.25 88.617188 72.402344 88.683594 72.539062 88.773438 C 72.785156 88.933594 73.019531 89.113281 73.238281 89.3125 C 74.078125 90.089844 74.839844 90.945312 75.519531 91.867188 Z M 75.480469 91.902344 "/>
<path style=" stroke:none;fill-rule:nonzero;fill:rgb(7.45098%,7.45098%,9.411765%);fill-opacity:1;" d="M 75.492188 91.910156 L 75.484375 91.90625 L 75.488281 91.910156 C 74.121094 91.28125 72.703125 90.777344 71.253906 90.40625 C 70.535156 90.1875 69.792969 90.050781 69.046875 90.003906 C 68.675781 89.980469 68.300781 90 67.929688 90.058594 C 67.757812 90.070312 67.589844 90.113281 67.4375 90.191406 C 67.28125 90.265625 67.144531 90.375 67.03125 90.507812 C 66.894531 90.75 67.113281 91.097656 67.339844 91.320312 C 67.589844 91.542969 67.898438 91.675781 68.230469 91.703125 C 69 91.714844 69.769531 91.832031 70.511719 92.046875 C 71.996094 92.5 73.351562 93.316406 74.457031 94.425781 L 74.425781 94.46875 C 73.171875 93.636719 71.800781 93.003906 70.363281 92.597656 C 69.648438 92.390625 68.914062 92.257812 68.175781 92.199219 C 67.746094 92.148438 67.347656 91.941406 67.046875 91.617188 C 66.898438 91.457031 66.785156 91.261719 66.71875 91.050781 C 66.675781 90.9375 66.660156 90.8125 66.671875 90.691406 C 66.683594 90.570312 66.726562 90.453125 66.789062 90.347656 C 67.085938 90.050781 67.488281 89.878906 67.902344 89.875 C 68.285156 89.835938 68.667969 89.820312 69.050781 89.828125 C 69.816406 89.808594 70.585938 89.855469 71.34375 89.972656 C 72.859375 90.261719 74.285156 90.910156 75.515625 91.863281 L 75.519531 91.867188 L 75.523438 91.867188 L 75.527344 91.875 Z M 75.492188 91.910156 "/>
<path style=" stroke:none;fill-rule:nonzero;fill:rgb(7.45098%,7.45098%,9.411765%);fill-opacity:1;" d="M 85.859375 98.300781 C 85.371094 99.546875 84.457031 100.5625 83.285156 101.164062 C 82.691406 101.457031 82.054688 101.632812 81.398438 101.695312 C 80.746094 101.746094 80.09375 101.695312 79.457031 101.539062 L 79.414062 101.527344 L 79.390625 101.511719 L 74.894531 98.4375 C 74.523438 98.175781 74.148438 97.917969 73.78125 97.644531 C 73.414062 97.378906 73.070312 97.019531 72.734375 96.796875 C 71.976562 96.367188 71.128906 96.144531 70.261719 96.144531 C 70.042969 96.132812 69.828125 96.132812 69.609375 96.140625 C 69.363281 96.15625 69.113281 96.136719 68.871094 96.082031 C 68.359375 95.976562 67.90625 95.671875 67.605469 95.230469 C 67.433594 94.984375 67.351562 94.683594 67.378906 94.382812 C 67.433594 94.089844 67.582031 93.824219 67.804688 93.632812 C 68.1875 93.273438 68.683594 93.074219 69.199219 93.066406 C 70.113281 93.113281 71.023438 93.234375 71.917969 93.425781 C 72.820312 93.582031 73.683594 93.921875 74.453125 94.425781 L 74.464844 94.449219 C 74.46875 94.4375 74.453125 94.425781 74.445312 94.429688 L 74.445312 94.480469 C 74.433594 94.484375 74.410156 94.464844 74.414062 94.449219 L 74.425781 94.46875 C 73.613281 94.089844 72.75 93.855469 71.863281 93.769531 C 70.988281 93.652344 70.105469 93.585938 69.222656 93.578125 C 68.464844 93.609375 67.570312 94.328125 68.066406 94.910156 C 68.289062 95.234375 68.617188 95.460938 68.996094 95.550781 C 69.191406 95.601562 69.394531 95.621094 69.597656 95.613281 C 69.828125 95.613281 70.058594 95.621094 70.289062 95.636719 C 71.234375 95.664062 72.152344 95.957031 72.941406 96.484375 C 73.335938 96.800781 73.59375 97.140625 73.945312 97.429688 C 74.292969 97.71875 74.636719 98.011719 75.003906 98.277344 C 76.46875 99.34375 78.007812 100.300781 79.601562 101.144531 L 79.539062 101.121094 C 80.738281 101.367188 81.980469 101.253906 83.117188 100.789062 C 83.679688 100.535156 84.191406 100.1875 84.640625 99.761719 C 85.101562 99.332031 85.496094 98.832031 85.8125 98.28125 Z M 85.859375 98.300781 "/>
<path style=" stroke:none;fill-rule:nonzero;fill:rgb(7.45098%,7.45098%,9.411765%);fill-opacity:1;" d="M 70.4375 85.742188 C 71.078125 85.878906 71.707031 86.0625 72.324219 86.285156 C 72.9375 86.503906 73.535156 86.769531 74.109375 87.078125 C 75.285156 87.652344 76.269531 88.570312 76.941406 89.714844 C 76.210938 88.636719 75.1875 87.804688 73.996094 87.316406 C 73.417969 87.054688 72.816406 86.835938 72.207031 86.667969 C 71.601562 86.492188 70.984375 86.359375 70.359375 86.269531 Z M 70.4375 85.742188 "/>
<path style=" stroke:none;fill-rule:nonzero;fill:rgb(7.45098%,7.45098%,9.411765%);fill-opacity:1;" d="M 78.351562 86.019531 L 78.316406 85.847656 L 78.3125 85.84375 C 78.046875 84.582031 77.804688 83.304688 77.625 82.019531 C 77.53125 81.378906 77.449219 80.734375 77.378906 80.089844 L 77.285156 79.121094 L 77.210938 78.191406 L 77.207031 78.148438 C 76.984375 74.703125 77.160156 71.242188 77.726562 67.839844 C 78.011719 66.132812 78.386719 64.46875 78.828125 62.789062 C 79.054688 61.910156 79.433594 61.078125 79.941406 60.335938 C 80.210938 59.925781 80.558594 59.578125 80.957031 59.304688 C 81.359375 59.035156 81.808594 58.847656 82.28125 58.753906 L 82.472656 58.722656 L 82.628906 58.902344 C 84.859375 61.414062 87.085938 63.925781 89.277344 66.472656 L 92.578125 70.277344 L 95.847656 74.117188 L 96.054688 74.363281 L 95.851562 74.597656 L 89.386719 82.183594 L 82.984375 89.824219 L 82.992188 89.8125 C 82.769531 90.164062 82.621094 90.5625 82.550781 90.976562 C 82.480469 91.390625 82.492188 91.8125 82.582031 92.222656 C 82.753906 93.070312 83.058594 93.882812 83.480469 94.628906 C 84.320312 96.148438 85.359375 97.542969 86.5625 98.777344 L 86.289062 98.757812 C 91.539062 94.660156 96.75 90.5 101.792969 86.148438 C 103.046875 85.054688 104.292969 83.953125 105.503906 82.820312 C 106.117188 82.261719 106.707031 81.683594 107.285156 81.09375 C 107.585938 80.804688 107.84375 80.492188 108.117188 80.191406 C 108.25 80.039062 108.394531 79.890625 108.515625 79.734375 L 108.863281 79.25 C 109.316406 78.613281 109.667969 77.902344 109.902344 77.148438 C 110.109375 76.394531 110.1875 75.613281 110.140625 74.832031 C 109.980469 73.253906 109.386719 71.75 108.4375 70.5 L 108.402344 70.460938 L 108.390625 70.441406 C 106.625 67.636719 104.820312 64.847656 102.984375 62.074219 C 101.152344 59.304688 99.265625 56.574219 97.371094 53.855469 C 95.460938 51.148438 93.511719 48.460938 91.378906 45.957031 C 90.824219 45.359375 90.296875 44.714844 89.710938 44.179688 C 89.121094 43.636719 88.484375 43.148438 87.800781 42.730469 C 86.417969 41.890625 84.929688 41.25 83.378906 40.828125 L 83.449219 40.835938 L 83.394531 40.835938 L 83.363281 40.828125 C 81.539062 40.332031 79.671875 40.019531 77.789062 39.898438 C 75.898438 39.761719 74 39.792969 72.113281 39.984375 L 72.097656 39.878906 C 73.988281 39.601562 75.898438 39.488281 77.804688 39.542969 C 79.726562 39.574219 81.636719 39.820312 83.503906 40.277344 L 83.433594 40.269531 L 83.480469 40.269531 L 83.515625 40.277344 C 85.136719 40.667969 86.699219 41.285156 88.15625 42.113281 C 88.886719 42.535156 89.578125 43.027344 90.21875 43.589844 C 90.871094 44.152344 91.402344 44.792969 91.984375 45.394531 C 94.199219 47.902344 96.199219 50.566406 98.171875 53.25 C 100.144531 55.933594 102.007812 58.695312 103.863281 61.457031 C 105.714844 64.226562 107.53125 67.019531 109.316406 69.832031 L 109.277344 69.773438 C 110.367188 71.210938 111.027344 72.9375 111.1875 74.75 C 111.238281 75.664062 111.132812 76.578125 110.882812 77.457031 C 110.609375 78.316406 110.199219 79.125 109.675781 79.851562 L 109.28125 80.386719 C 109.144531 80.558594 108.996094 80.707031 108.851562 80.871094 C 108.5625 81.1875 108.28125 81.515625 107.972656 81.804688 C 107.375 82.402344 106.765625 82.984375 106.140625 83.546875 C 104.90625 84.6875 103.625 85.757812 102.339844 86.832031 C 97.1875 91.085938 91.890625 95.132812 86.539062 99.105469 L 86.386719 99.21875 L 86.265625 99.082031 C 85.671875 98.433594 85.109375 97.753906 84.585938 97.042969 C 84.058594 96.335938 83.582031 95.585938 83.164062 94.804688 C 82.730469 94.019531 82.425781 93.167969 82.253906 92.28125 C 82.15625 91.828125 82.152344 91.359375 82.234375 90.90625 C 82.316406 90.449219 82.488281 90.015625 82.734375 89.625 L 82.746094 89.613281 L 89.054688 81.894531 L 95.308594 74.125 L 95.316406 74.605469 L 91.945312 70.863281 L 88.609375 67.089844 C 86.375 64.582031 84.179688 62.042969 81.980469 59.5 L 82.332031 59.648438 C 82 59.710938 81.683594 59.851562 81.414062 60.054688 C 81.109375 60.28125 80.84375 60.550781 80.617188 60.855469 C 80.160156 61.511719 79.820312 62.246094 79.609375 63.023438 C 79.164062 64.644531 78.785156 66.316406 78.453125 67.976562 C 77.816406 71.316406 77.546875 74.722656 77.664062 78.125 L 77.65625 78.078125 C 77.667969 78.175781 77.671875 78.273438 77.671875 78.367188 L 77.679688 78.605469 L 77.703125 79.089844 L 77.757812 80.054688 C 77.800781 80.699219 77.855469 81.339844 77.921875 81.984375 C 78.054688 83.265625 78.230469 84.542969 78.425781 85.824219 L 78.425781 85.820312 L 78.453125 85.992188 Z M 78.351562 86.019531 "/>
<path style=" stroke:none;fill-rule:nonzero;fill:rgb(7.45098%,7.45098%,9.411765%);fill-opacity:1;" d="M 65.867188 39.972656 C 64.792969 40.914062 63.714844 41.757812 62.625 42.550781 C 61.550781 43.355469 60.433594 44.097656 59.28125 44.777344 L 59.230469 44.03125 C 60.253906 44.605469 61.257812 45.226562 62.296875 45.769531 C 63.335938 46.308594 64.40625 46.789062 65.496094 47.210938 L 65.207031 47.269531 L 66.761719 45.277344 C 67.285156 44.617188 67.832031 43.980469 68.382812 43.34375 C 69.46875 42.058594 70.578125 40.800781 71.71875 39.570312 L 72.101562 40.464844 Z M 65.835938 39.871094 L 72.101562 39.398438 L 73.339844 39.304688 L 72.484375 40.289062 C 71.386719 41.558594 70.261719 42.808594 69.109375 44.03125 C 68.539062 44.644531 67.96875 45.257812 67.375 45.851562 L 65.574219 47.613281 L 65.429688 47.757812 L 65.285156 47.675781 C 64.269531 47.089844 63.222656 46.5625 62.152344 46.089844 C 61.078125 45.628906 59.96875 45.238281 58.878906 44.804688 L 58.203125 44.535156 L 58.832031 44.058594 C 59.941406 43.242188 61.09375 42.484375 62.285156 41.789062 C 63.457031 41.085938 64.648438 40.433594 65.835938 39.871094 Z M 65.835938 39.871094 "/>
<path style=" stroke:none;fill-rule:nonzero;fill:rgb(7.45098%,7.45098%,9.411765%);fill-opacity:1;" d="M 39.253906 69.964844 C 38.6875 70.472656 38.09375 70.949219 37.472656 71.390625 C 36.878906 71.804688 36.339844 72.296875 35.875 72.855469 C 35.371094 73.398438 34.984375 74.046875 34.746094 74.753906 C 34.523438 75.476562 34.484375 76.246094 34.628906 76.988281 C 34.988281 78.429688 35.449219 79.9375 35.769531 81.429688 C 36.09375 82.9375 36.332031 84.460938 36.484375 86 L 36.417969 86.015625 C 35.886719 84.570312 35.441406 83.09375 35.078125 81.59375 C 34.898438 80.847656 34.757812 80.09375 34.609375 79.339844 C 34.4375 78.578125 34.324219 77.804688 34.265625 77.027344 C 34.25 76.242188 34.339844 75.453125 34.539062 74.695312 C 34.707031 73.914062 35.011719 73.175781 35.4375 72.507812 C 35.898438 71.851562 36.5 71.316406 37.199219 70.945312 C 37.851562 70.5625 38.527344 70.214844 39.21875 69.90625 Z M 39.253906 69.964844 "/>
</g>
</svg>
